<?xml version="1.0" encoding="utf-8"?>
<!-- Generator: Adobe Illustrator 26.3.1, SVG Export Plug-In . SVG Version: 6.00 Build 0)  -->
<svg version="1.1" xmlns="http://www.w3.org/2000/svg" xmlns:xlink="http://www.w3.org/1999/xlink" x="0px" y="0px"
	 viewBox="0 0 258.85 188.44" style="enable-background:new 0 0 258.85 188.44;" xml:space="preserve">
<style type="text/css">
	.st0{display:none;}
	.st1{display:inline;}
	.st2{fill:#FFFFFF;}
</style>
<g id="padding" class="st0">
	<g class="st1">
		<g>
			<path d="M5.9,105.95c0-2.83,3.02-3.74,5.76-5.08c1.15-0.58,2.25-1.29,3.07-2.25c1.01,3.21,3.93,6.52,8.78,6.52
				c5.95,0,9.02-4.27,9.02-10.6V81.2H0.14v8.01h12.81v1.82c0,1.78-4.03,3.12-6.33,4.08C1.49,97.36,0,99.57,0,103.41
				c0,1.49,0.43,3.21,0.43,3.21l5.71,0.62C6.14,107.24,5.9,106.67,5.9,105.95z M18.75,92.09v-2.88h7.96v3.84
				c0,2.21-0.96,4.03-3.79,4.03C19.47,97.08,18.75,94.39,18.75,92.09z"/>
			<path d="M232.23,105.95c0-2.83,3.02-3.74,5.76-5.08c1.15-0.58,2.25-1.29,3.07-2.25c1.01,3.21,3.93,6.52,8.78,6.52
				c5.95,0,9.02-4.27,9.02-10.6V81.2h-32.38v8.01h12.81v1.82c0,1.78-4.03,3.12-6.33,4.08c-5.13,2.25-6.62,4.46-6.62,8.3
				c0,1.49,0.43,3.21,0.43,3.21l5.71,0.62C232.47,107.24,232.23,106.67,232.23,105.95z M245.08,92.09v-2.88h7.96v3.84
				c0,2.21-0.96,4.03-3.79,4.03C245.8,97.08,245.08,94.39,245.08,92.09z"/>
		</g>
		<path d="M145.08,27.1c-2.83,0-3.74-3.02-5.08-5.76c-0.58-1.15-1.29-2.25-2.25-3.07c3.21-1.01,6.52-3.93,6.52-8.78
			c0-5.95-4.27-9.02-10.6-9.02h-13.33v32.38h8.01V20.05h1.82c1.78,0,3.12,4.03,4.08,6.33c2.25,5.13,4.46,6.62,8.3,6.62
			c1.49,0,3.21-0.43,3.21-0.43l0.62-5.71C146.37,26.86,145.8,27.1,145.08,27.1z M131.22,14.24h-2.88V6.28h3.84
			c2.21,0,4.03,0.96,4.03,3.79C136.2,13.53,133.52,14.24,131.22,14.24z"/>
		<path d="M144,182.54c-2.83,0-3.74-3.02-5.08-5.76c-0.58-1.15-1.29-2.25-2.25-3.07c3.21-1.01,6.52-3.93,6.52-8.78
			c0-5.95-4.27-9.02-10.6-9.02h-13.33v32.38h8.01v-12.81h1.82c1.78,0,3.12,4.03,4.08,6.33c2.25,5.13,4.46,6.62,8.3,6.62
			c1.49,0,3.21-0.43,3.21-0.43l0.62-5.71C145.29,182.3,144.72,182.54,144,182.54z M130.14,169.69h-2.88v-7.96h3.84
			c2.21,0,4.03,0.96,4.03,3.79C135.12,168.97,132.44,169.69,130.14,169.69z"/>
	</g>
</g>
<g id="logo">
	<g>
		<path class="st2" d="M32.52,99.08h13.33c6.33,0,10.6,3.07,10.6,9.02c0,4.84-3.31,7.77-6.52,8.78c0.96,0.82,1.68,1.92,2.25,3.07
			c1.34,2.73,2.25,5.76,5.08,5.76c0.72,0,1.3-0.24,1.3-0.24l-0.62,5.71c0,0-1.73,0.43-3.21,0.43c-3.84,0-6.04-1.49-8.3-6.62
			c-0.96-2.3-2.3-6.33-4.08-6.33h-1.82v12.81h-8.01V99.08 M40.53,104.88v7.96h2.88c2.3,0,4.99-0.72,4.99-4.17
			c0-2.83-1.82-3.79-4.03-3.79H40.53z M67.29,99.08h8.11l10.94,32.38h-8.11l-2.01-6.14H65.37l-1.97,6.14h-7L67.29,99.08z
			 M67.29,119.37h6.96l-2.21-6.81c-0.77-2.3-1.1-5.56-1.1-5.56h-0.19c0,0-0.48,3.31-1.2,5.52L67.29,119.37z M86.66,131.46h6.57
			v-15.54c0-1.77-0.24-3.93-0.38-5.76h0.19c0.67,1.73,1.54,3.84,2.35,5.28l8.83,16.02h8.39V99.08h-6.57v15.54
			c0,1.87,0.24,4.46,0.34,6.28h-0.19c-0.77-1.92-1.73-4.36-2.45-5.76l-8.49-16.07h-8.59V131.46z M114.34,115.05
			c0,11.8,5.66,16.98,14.44,16.98c8.63,0,13.38-4.84,12.85-11.42l-7-0.72c0.58,4.22-2.11,6.28-5.42,6.28
			c-3.5,0-6.57-2.25-6.57-11.08c0-8.35,2.83-10.94,6.33-10.94c3.65,0,5.66,2.06,4.84,7.19l7.48-0.67c1.05-7-2.73-12.18-12.18-12.18
			C120.14,98.5,114.34,103.35,114.34,115.05 M143.26,131.46h8.01v-13.72h9.83v13.72h8.01V99.08h-8.01v12.23h-9.83V99.08h-8.01
			V131.46z M172.32,131.46h21.92v-5.95h-13.91v-7.58h11.27v-5.95h-11.27v-6.95h13.43v-5.95h-21.44V131.46z M195.77,99.08h13.33
			c6.33,0,10.6,3.07,10.6,9.02c0,4.84-3.31,7.77-6.52,8.78c0.96,0.82,1.68,1.92,2.25,3.07c1.34,2.73,2.25,5.76,5.08,5.76
			c0.72,0,1.29-0.24,1.29-0.24l-0.62,5.71c0,0-1.73,0.43-3.21,0.43c-3.84,0-6.04-1.49-8.3-6.62c-0.96-2.3-2.3-6.33-4.08-6.33h-1.82
			v12.81h-8.01V99.08z M203.78,104.88v7.96h2.88c2.3,0,4.99-0.72,4.99-4.17c0-2.83-1.82-3.79-4.03-3.79H203.78z"/>
		<path class="st2" d="M185.22,44.97l-1.26-7.56c-0.4-2.43-1.35-4.41-2.1-4.41c-0.75,0-1.37,2.01-1.37,4.47v1.98
			c0,2.46-2.01,4.47-4.47,4.47h-1.98c-0.14,0-0.29,0.01-0.42,0.01v5.44c0.14,0.01,0.28,0.01,0.42,0.01h7.44
			C183.94,49.39,185.62,47.4,185.22,44.97"/>
		<path class="st2" d="M167.39,38.57h-12.06c-0.1,0-0.2,0.01-0.3,0.01h-12.38c-0.15,0-0.29,0.01-0.43,0.04v-1.15
			c0-2.46-0.61-4.47-1.37-4.47c-0.75,0-1.7,1.99-2.1,4.41l-1.26,7.56c-0.4,2.43,1.28,4.41,3.74,4.41h7.44
			c0.77,0,1.49-0.12,2.12-0.33c-0.24,1.27-1.35,2.23-2.68,2.23h-10.43c-1.69,0-2.97-1.52-2.69-3.18l1.06-6.34
			c0.28-1.66-1.01-3.18-2.69-3.18H81.43c-1.11,0-2.06,0.66-2.49,1.6l-9.78,14.87c-0.17,0.25-0.15,0.58,0.05,0.81l1.9,2.24
			c0.24,0.28,0.65,0.32,0.94,0.09l6.64-5.24v31.82c0,1.51,1.22,2.73,2.73,2.73h14.74c1.51,0,2.73-1.22,2.73-2.73V73.73
			c0-1.51,1.22-2.73,2.73-2.73h36.79c1.51,0,2.73,1.22,2.73,2.73v11.07c0,1.51,1.22,2.73,2.73,2.73h14.74
			c1.51,0,2.73-1.22,2.73-2.73V72.88h-7.83c-2.46,0-4.47-2.01-4.47-4.47v-7.66c0-1.46,0.71-2.75,1.8-3.57v9.14
			c0,2.46,2.01,4.47,4.47,4.47h12.06c2.46,0,4.47-2.01,4.47-4.47V43.05C171.86,40.59,169.85,38.57,167.39,38.57"/>
		<path class="st2" d="M221.97,100.7c0-1.53,1.13-2.19,2.18-2.19s2.18,0.66,2.18,2.19c0,1.5-1.13,2.15-2.18,2.15
			S221.97,102.19,221.97,100.7 M225.8,100.69c0-1.2-0.78-1.72-1.66-1.72c-0.87,0-1.68,0.52-1.68,1.72c0,1.19,0.81,1.7,1.68,1.7
			C225.03,102.39,225.8,101.87,225.8,100.69z M223.43,99.6h0.77c0.39,0,0.79,0.11,0.79,0.66c0,0.33-0.22,0.51-0.51,0.57l0.51,0.88
			h-0.47l-0.48-0.85h-0.19v0.85h-0.42V99.6z M224.23,100.56c0.18,0,0.34-0.11,0.34-0.31c0-0.22-0.18-0.28-0.34-0.28h-0.38v0.59
			H224.23z"/>
		<g>
			<path class="st2" d="M147.82,155.92h-4.56v-12.23h4.39c2.58,0,3.88,1.4,3.88,3.11c0,1.54-0.97,2.44-2.14,2.83
				c1.33,0.23,2.42,1.51,2.42,3.02C151.8,154.48,150.35,155.92,147.82,155.92z M147.5,145h-2.65v3.97h2.69
				c1.49,0,2.35-0.74,2.35-1.98C149.89,145.77,149.07,145,147.5,145z M147.63,150.28h-2.77v4.32h2.83c1.58,0,2.53-0.79,2.53-2.12
				C150.21,151.13,149.19,150.28,147.63,150.28z"/>
			<path class="st2" d="M153.88,143.68h1.77l3.02,6.2l3.02-6.2h1.77l-3.98,7.62v4.62h-1.6v-4.62L153.88,143.68z"/>
		</g>
		<g id="Layer_1_00000018198142132233427420000003751010304965106607_">
			<g>
				<path class="st2" d="M215.73,155.76c-1.32,0-2.4-1.08-2.4-2.4v-7.12c0-1.32,1.08-2.4,2.4-2.4h5.46c0.43,0,0.78,0.35,0.78,0.78
					s-0.35,0.78-0.78,0.78h-5.46c-0.47,0-0.85,0.38-0.85,0.85v2.8h5.36c0.41,0,0.74,0.33,0.74,0.74s-0.33,0.74-0.74,0.74h-5.36v2.85
					c0,0.47,0.38,0.85,0.85,0.85h5.46c0.43,0,0.78,0.35,0.78,0.78c0,0.43-0.35,0.78-0.78,0.78H215.73z M191.22,155.92
					c-1.58,0-2.79-0.4-3.61-1.19c-0.82-0.79-1.23-1.97-1.23-3.52v-6.62c0-0.5,0.4-0.9,0.9-0.9c0.5,0,0.9,0.4,0.9,0.9v6.39
					c0,1.16,0.25,2.03,0.74,2.58c0.5,0.56,1.27,0.84,2.3,0.84c1.03,0,1.8-0.28,2.3-0.84c0.49-0.55,0.74-1.42,0.74-2.58v-6.39
					c0-0.5,0.4-0.9,0.9-0.9c0.5,0,0.9,0.4,0.9,0.9v6.62c0,1.55-0.42,2.73-1.23,3.52C194.01,155.52,192.8,155.92,191.22,155.92
					 M204.74,155.92c-2.03,0-3.57-0.58-4.59-1.71c-0.29-0.33-0.28-0.84,0.04-1.15l0,0l0,0c0.16-0.16,0.38-0.25,0.6-0.25
					c0.24,0,0.47,0.1,0.62,0.28c0.28,0.33,0.61,0.59,0.97,0.79c0.62,0.35,1.41,0.52,2.33,0.52c0.88,0,1.58-0.15,2.08-0.46
					c0.52-0.31,0.78-0.76,0.78-1.34c0-0.47-0.24-0.85-0.71-1.13c-0.46-0.27-1.23-0.51-2.35-0.72c-1.1-0.2-1.98-0.46-2.63-0.76
					c-0.64-0.3-1.11-0.67-1.4-1.1c-0.29-0.43-0.43-0.97-0.43-1.59c0-0.66,0.19-1.27,0.55-1.81c0.37-0.54,0.9-0.98,1.6-1.3
					c0.7-0.32,1.52-0.48,2.45-0.48c1.09,0,2.03,0.2,2.8,0.59c0.52,0.26,0.98,0.63,1.39,1.08c0.31,0.35,0.28,0.88-0.07,1.2
					c-0.16,0.14-0.36,0.22-0.57,0.22c-0.27,0-0.51-0.12-0.67-0.33c-0.23-0.3-0.49-0.54-0.77-0.73c-0.52-0.34-1.23-0.51-2.09-0.51
					c-0.85,0-1.53,0.17-2,0.52c-0.48,0.35-0.73,0.81-0.73,1.36c0,0.52,0.24,0.93,0.71,1.23c0.46,0.29,1.26,0.54,2.44,0.75
					c1.07,0.19,1.93,0.44,2.56,0.73c0.62,0.29,1.08,0.65,1.36,1.08c0.28,0.43,0.42,0.97,0.42,1.6c0,0.68-0.2,1.29-0.58,1.81
					c-0.39,0.52-0.95,0.93-1.65,1.2C206.51,155.78,205.67,155.92,204.74,155.92 M177.8,155.92c-2.03,0-3.57-0.58-4.59-1.71
					c-0.29-0.33-0.28-0.84,0.04-1.15l0,0c0.16-0.16,0.38-0.25,0.61-0.25c0.24,0,0.47,0.1,0.62,0.28c0.28,0.33,0.61,0.59,0.97,0.79
					c0.62,0.35,1.41,0.52,2.33,0.52c0.88,0,1.57-0.15,2.08-0.46c0.52-0.31,0.78-0.76,0.78-1.34c0-0.47-0.24-0.85-0.71-1.13
					c-0.46-0.28-1.23-0.51-2.35-0.72c-1.1-0.2-1.98-0.46-2.63-0.76c-0.64-0.3-1.11-0.67-1.4-1.1c-0.29-0.43-0.43-0.97-0.43-1.59
					c0-0.66,0.19-1.27,0.55-1.81c0.37-0.54,0.9-0.98,1.6-1.3c0.7-0.32,1.52-0.48,2.45-0.48c1.09,0,2.03,0.2,2.8,0.59
					c0.52,0.26,0.98,0.63,1.39,1.08c0.31,0.35,0.28,0.88-0.06,1.2c-0.16,0.14-0.36,0.22-0.57,0.22c-0.27,0-0.51-0.12-0.67-0.33
					c-0.23-0.3-0.49-0.54-0.77-0.73c-0.52-0.34-1.23-0.51-2.09-0.51c-0.85,0-1.53,0.17-2,0.52c-0.48,0.35-0.73,0.81-0.73,1.36
					c0,0.52,0.24,0.93,0.71,1.23c0.46,0.29,1.26,0.54,2.44,0.75c1.07,0.19,1.93,0.44,2.56,0.73c0.62,0.29,1.08,0.65,1.36,1.08
					c0.28,0.43,0.42,0.97,0.42,1.6c0,0.68-0.2,1.29-0.59,1.81c-0.39,0.52-0.95,0.93-1.65,1.2
					C179.56,155.78,178.73,155.92,177.8,155.92"/>
			</g>
		</g>
	</g>
</g>
</svg>
